<?xml version="1.0" encoding="UTF-8" standalone="no"?>
<svg
   xmlns:dc="http://purl.org/dc/elements/1.1/"
   xmlns:cc="http://creativecommons.org/ns#"
   xmlns:rdf="http://www.w3.org/1999/02/22-rdf-syntax-ns#"
   xmlns:svg="http://www.w3.org/2000/svg"
   xmlns="http://www.w3.org/2000/svg"
   xmlns:sodipodi="http://sodipodi.sourceforge.net/DTD/sodipodi-0.dtd"
   xmlns:inkscape="http://www.inkscape.org/namespaces/inkscape"
   version="1.1"
   width="512.7mm"
   height="202.7mm"
   viewBox=" 0 0 1816.6550370000002 718.228937"
   id="svg3106"
   inkscape:version="0.48.3.1 r9886"
   sodipodi:docname="caseplans.svg">
  <metadata
     id="metadata3136">
    <rdf:RDF>
      <cc:Work
         rdf:about="">
        <dc:format>image/svg+xml</dc:format>
        <dc:type
           rdf:resource="http://purl.org/dc/dcmitype/StillImage" />
      </cc:Work>
    </rdf:RDF>
  </metadata>
  <defs
     id="defs3134" />
  <sodipodi:namedview
     pagecolor="#ffffff"
     bordercolor="#666666"
     borderopacity="1"
     objecttolerance="10"
     gridtolerance="10"
     guidetolerance="10"
     inkscape:pageopacity="0"
     inkscape:pageshadow="2"
     inkscape:window-width="1600"
     inkscape:window-height="876"
     id="namedview3132"
     showgrid="false"
     showguides="true"
     inkscape:guide-bbox="true"
     inkscape:zoom="0.78991395"
     inkscape:cx="908.32678"
     inkscape:cy="359.11417"
     inkscape:window-x="0"
     inkscape:window-y="24"
     inkscape:window-maximized="1"
     inkscape:current-layer="svg3106" />
  <!-- Front-->
  <g
     transform="translate(22.5000185, 22.5000185) "
     id="g3108">
    <polygon
       style="stroke:#000000; fill:none; stroke-width:0.90000074"
       points="0, 0 97.441025, 0 97.441025, 10.62993 194.88205, 10.62993 194.88205, 0 258.66163, 0 258.66163, 10.62993 322.44120999999996, 10.62993 322.44120999999996, 0 386.22078999999997, 0 386.22078999999997, 10.62993 450.00037, 10.62993 450.00037, 0 513.77995, 0 513.77995, 10.62993 611.220975, 10.62993 611.220975, 0 708.662, 0 708.662, 63.779579999999996 698.0320700000001, 63.779579999999996 698.0320700000001, 127.55915999999999 708.662, 127.55915999999999 708.662, 191.33873999999997 698.0320700000001, 191.33873999999997 698.0320700000001, 255.11831999999998 708.662, 255.11831999999998 708.662, 318.8979 611.220975, 318.8979 611.220975, 308.26797 513.77995, 308.26797 513.77995, 318.8979 450.00037, 318.8979 450.00037, 308.26797 386.22078999999997, 308.26797 386.22078999999997, 318.8979 322.44120999999996, 318.8979 322.44120999999996, 308.26797 258.66163, 308.26797 258.66163, 318.8979 194.88205, 318.8979 194.88205, 308.26797 97.441025, 308.26797 97.441025, 318.8979 0, 318.8979 0, 255.11831999999998 10.62993, 255.11831999999998 10.62993, 191.33873999999997 0, 191.33873999999997 0, 127.55915999999999 10.62993, 127.55915999999999 10.62993, 63.779579999999996 0, 63.779579999999996 "
       id="polygon3110" />
  </g>
  <!-- Back-->
  <g
     transform="translate(731.1620184999999, 22.5000185) "
     id="g3112">
    <polygon
       style="stroke:#000000; fill:none; stroke-width:0.90000074"
       points="0, 0 97.441025, 0 97.441025, 10.62993 194.88205, 10.62993 194.88205, 0 258.66163, 0 258.66163, 10.62993 322.44120999999996, 10.62993 322.44120999999996, 0 386.22078999999997, 0 386.22078999999997, 10.62993 450.00037, 10.62993 450.00037, 0 513.77995, 0 513.77995, 10.62993 611.220975, 10.62993 611.220975, 0 708.662, 0 708.662, 63.779579999999996 698.0320700000001, 63.779579999999996 698.0320700000001, 127.55915999999999 708.662, 127.55915999999999 708.662, 191.33873999999997 698.0320700000001, 191.33873999999997 698.0320700000001, 255.11831999999998 708.662, 255.11831999999998 708.662, 318.8979 611.220975, 318.8979 611.220975, 308.26797 513.77995, 308.26797 513.77995, 318.8979 450.00037, 318.8979 450.00037, 308.26797 386.22078999999997, 308.26797 386.22078999999997, 318.8979 322.44120999999996, 318.8979 322.44120999999996, 308.26797 258.66163, 308.26797 258.66163, 318.8979 194.88205, 318.8979 194.88205, 308.26797 97.441025, 308.26797 97.441025, 318.8979 0, 318.8979 0, 255.11831999999998 10.62993, 255.11831999999998 10.62993, 191.33873999999997 0, 191.33873999999997 0, 127.55915999999999 10.62993, 127.55915999999999 10.62993, 63.779579999999996 0, 63.779579999999996 "
       id="polygon3114" />
  </g>
  <!-- Left-->
  <g
     transform="translate(1439.8240185, 22.5000185) "
     id="g3116">
    <polygon
       style="stroke:#000000; fill:none; stroke-width:0.90000074"
       points="10.62993, 0 70.86619999999999, 0 70.86619999999999, 10.62993 141.73239999999998, 10.62993 141.73239999999998, 0 212.59859999999998, 0 212.59859999999998, 10.62993 283.46479999999997, 10.62993 283.46479999999997, 0 343.70107, 0 343.70107, 63.779579999999996 354.331, 63.779579999999996 354.331, 127.55915999999999 343.70107, 127.55915999999999 343.70107, 191.33873999999997 354.331, 191.33873999999997 354.331, 255.11831999999998 343.70107, 255.11831999999998 343.70106999999996, 318.8979 283.46479999999997, 318.8979 283.46479999999997, 308.26797 212.59859999999998, 308.26797 212.59859999999998, 318.8979 141.73239999999998, 318.8979 141.73239999999998, 308.26797 70.86619999999999, 308.26797 70.86619999999999, 318.8979 10.62993, 318.8979 10.62993, 255.11831999999998 0, 255.11831999999998 0, 191.33873999999997 10.62993, 191.33873999999997 10.62993, 127.55915999999999 0, 127.55915999999999 0, 63.779579999999996 10.62993, 63.779579999999996 "
       id="polygon3118" />
  </g>
  <!-- Right-->
  <g
     transform="translate(1439.8240185, 341.3979185) "
     id="g3120">
    <polygon
       style="stroke:#000000; fill:none; stroke-width:0.90000074"
       points="10.62993, 0 70.86619999999999, 0 70.86619999999999, 10.62993 141.73239999999998, 10.62993 141.73239999999998, 0 212.59859999999998, 0 212.59859999999998, 10.62993 283.46479999999997, 10.62993 283.46479999999997, 0 343.70107, 0 343.70107, 63.779579999999996 354.331, 63.779579999999996 354.331, 127.55915999999999 343.70107, 127.55915999999999 343.70107, 191.33873999999997 354.331, 191.33873999999997 354.331, 255.11831999999998 343.70107, 255.11831999999998 343.70106999999996, 318.8979 283.46479999999997, 318.8979 283.46479999999997, 308.26797 212.59859999999998, 308.26797 212.59859999999998, 318.8979 141.73239999999998, 318.8979 141.73239999999998, 308.26797 70.86619999999999, 308.26797 70.86619999999999, 318.8979 10.62993, 318.8979 10.62993, 255.11831999999998 0, 255.11831999999998 0, 191.33873999999997 10.62993, 191.33873999999997 10.62993, 127.55915999999999 0, 127.55915999999999 0, 63.779579999999996 10.62993, 63.779579999999996 "
       id="polygon3122" />
  </g>
  <!-- Top-->
  <g
     transform="translate(22.5000185, 341.3979185) "
     id="g3124">
    <polygon
       style="stroke:#000000; fill:none; stroke-width:0.90000074"
       points="10.62993, 10.62993 97.441025, 10.62993 97.441025, 0 194.88205, 0 194.88205, 10.62993 258.66163, 10.62993 258.66163, 0 322.44120999999996, 0 322.44120999999996, 10.62993 386.22078999999997, 10.62993 386.22078999999997, 0 450.00037, 0 450.00037, 10.62993 513.77995, 10.62993 513.77995, 0 611.220975, 0 611.220975, 10.62993 698.0320700000001, 10.62993 698.0320700000001, 70.86619999999999 708.662, 70.86619999999999 708.662, 141.73239999999998 698.0320700000001, 141.73239999999998 698.0320700000001, 212.59859999999998 708.662, 212.59859999999998 708.662, 283.46479999999997 698.0320700000001, 283.46479999999997 698.0320700000001, 343.70107 611.220975, 343.70107 611.220975, 354.331 513.77995, 354.331 513.77995, 343.70107 450.00037, 343.70107 450.00037, 354.331 386.22078999999997, 354.331 386.22078999999997, 343.70107 322.44120999999996, 343.70107 322.44120999999996, 354.331 258.66163, 354.331 258.66163, 343.70107 194.88205, 343.70107 194.88205, 354.331 97.441025, 354.331 97.441025, 343.70107 10.62993, 343.70106999999996 10.62993, 283.46479999999997 0, 283.46479999999997 0, 212.59859999999998 10.62993, 212.59859999999998 10.62993, 141.73239999999998 0, 141.73239999999998 0, 70.86619999999999 10.62993, 70.86619999999999 "
       id="polygon3126" />
  </g>
  <!-- Bottom-->
  <g
     transform="translate(731.1620184999999, 341.3979185) "
     id="g3128">
    <polygon
       style="stroke:#000000; fill:none; stroke-width:0.90000074"
       points="10.62993, 10.62993 97.441025, 10.62993 97.441025, 0 194.88205, 0 194.88205, 10.62993 258.66163, 10.62993 258.66163, 0 322.44120999999996, 0 322.44120999999996, 10.62993 386.22078999999997, 10.62993 386.22078999999997, 0 450.00037, 0 450.00037, 10.62993 513.77995, 10.62993 513.77995, 0 611.220975, 0 611.220975, 10.62993 698.0320700000001, 10.62993 698.0320700000001, 70.86619999999999 708.662, 70.86619999999999 708.662, 141.73239999999998 698.0320700000001, 141.73239999999998 698.0320700000001, 212.59859999999998 708.662, 212.59859999999998 708.662, 283.46479999999997 698.0320700000001, 283.46479999999997 698.0320700000001, 343.70107 611.220975, 343.70107 611.220975, 354.331 513.77995, 354.331 513.77995, 343.70107 450.00037, 343.70107 450.00037, 354.331 386.22078999999997, 354.331 386.22078999999997, 343.70107 322.44120999999996, 343.70107 322.44120999999996, 354.331 258.66163, 354.331 258.66163, 343.70107 194.88205, 343.70107 194.88205, 354.331 97.441025, 354.331 97.441025, 343.70107 10.62993, 343.70106999999996 10.62993, 283.46479999999997 0, 283.46479999999997 0, 212.59859999999998 10.62993, 212.59859999999998 10.62993, 141.73239999999998 0, 141.73239999999998 0, 70.86619999999999 10.62993, 70.86619999999999 "
       id="polygon3130" />
  </g>
  <path
     style="fill:none;stroke:#000000;stroke-width:1.12816501px;stroke-linecap:butt;stroke-linejoin:miter;stroke-opacity:1"
     d="m 266.66912,414.44872 1.54935,209.33309 -140.98935,0 0,-210.64965 z"
     id="path3138-9"
     inkscape:connector-curvature="0" />
  <path
     style="fill:none;stroke:#000000;stroke-width:1.12816596px;stroke-linecap:butt;stroke-linejoin:miter;stroke-opacity:1"
     d="m 629.52119,414.90054 1.54935,209.33327 -140.98947,0 0,-210.64983 z"
     id="path3138-9-2"
     inkscape:connector-curvature="0" />
  <flowRoot
     xml:space="preserve"
     id="flowRoot3184"
     style="fill:black;stroke:none;stroke-opacity:1;stroke-width:1px;stroke-linejoin:miter;stroke-linecap:butt;fill-opacity:1;font-family:Sans;font-style:normal;font-weight:normal;font-size:40px;line-height:125%;letter-spacing:0px;word-spacing:0px"><flowRegion
       id="flowRegion3186"><rect
         id="rect3188"
         width="22.787292"
         height="43.042664"
         x="608.92706"
         y="237.16328" /></flowRegion><flowPara
       id="flowPara3190"></flowPara></flowRoot></svg>
